<svg viewBox="0 0 16 16" fill="none" xmlns="http://www.w3.org/2000/svg" x="0" y="0"><g id="Circle Clock">
<path id="Vector_3" fill-rule="evenodd" clip-rule="evenodd" d="M8.167,2.5c-3.038,0 -5.5,2.462 -5.5,5.5c0,3.037 2.462,5.5 5.5,5.5c3.038,0 5.5,-2.463 5.5,-5.5c0,-3.038 -2.462,-5.5 -5.5,-5.5zM1.667,8c0,-3.59 2.91,-6.5 6.5,-6.5c3.59,0 6.5,2.91 6.5,6.5c0,3.589 -2.91,6.5 -6.5,6.5c-3.59,0 -6.5,-2.911 -6.5,-6.5z" fill="currentColor"/>
<path id="Vector_4" fill-rule="evenodd" clip-rule="evenodd" d="M7.948,5.218c0.276,0 0.5,0.224 0.5,0.5v2.448l1.873,1.12c0.237,0.141 0.315,0.448 0.173,0.685c-0.142,0.237 -0.449,0.315 -0.686,0.173l-2.116,-1.265c-0.151,-0.09 -0.244,-0.253 -0.244,-0.429v-2.732c0,-0.276 0.224,-0.5 0.5,-0.5z" fill="currentColor"/>
</g></svg>