<svg viewBox="0 0 20 20" fill="none" xmlns="http://www.w3.org/2000/svg" x="0" y="0"><g id="Delete">
<path id="Vector_43" d="M12.38,3.103l0.68,1.428h2.2c0.67,0 1.22,0.526 1.22,1.176v0.87c0,0.444 -0.37,0.804 -0.83,0.804h-11.48c-0.46,0 -0.84,-0.36 -0.84,-0.804v-0.87c0,-0.65 0.55,-1.176 1.23,-1.176h2.2l0.68,-1.428c0.2,-0.428 0.65,-0.703 1.14,-0.703h2.66c0.49,0 0.93,0.275 1.14,0.703z" stroke="#0E121B" stroke-width="1.5" stroke-linecap="round" stroke-linejoin="round"/>
<path id="Vector_44" d="M15.2,7.441v6.948c0,1.332 -1.11,2.411 -2.48,2.411h-5.62c-1.37,0 -2.48,-1.079 -2.48,-2.411v-6.948" stroke="#0E121B" stroke-width="1.5" stroke-linecap="round" stroke-linejoin="round"/>
<path id="Vector_45" d="M8.5,10.253v3.607M11.32,10.253v3.607" stroke="#0E121B" stroke-width="1.5" stroke-linecap="round" stroke-linejoin="round"/>
</g></svg>