<svg viewBox="0 0 20 20" fill="none" xmlns="http://www.w3.org/2000/svg" x="0" y="0"><g id="Show">
<path id="Vector_31" fill-rule="evenodd" clip-rule="evenodd" d="M10,8.429c-1.11,0 -2.01,0.863 -2.01,1.929c0,1.066 0.9,1.93 2.01,1.93c1.11,0 2.01,-0.864 2.01,-1.93c0,-1.066 -0.9,-1.929 -2.01,-1.929zM6.74,10.358c0,-1.729 1.46,-3.129 3.26,-3.129c1.8,0 3.26,1.4 3.26,3.129c0,1.729 -1.46,3.13 -3.26,3.13c-1.8,0 -3.26,-1.401 -3.26,-3.13z" fill="currentColor"/>
<path id="Vector_32" fill-rule="evenodd" clip-rule="evenodd" d="M4.15,5.995c1.49,-1.213 3.56,-2.078 5.85,-2.078c2.29,0 4.36,0.864 5.86,2.078c1.48,1.2 2.48,2.813 2.48,4.363c0,1.551 -1,3.164 -2.48,4.364c-1.5,1.214 -3.57,2.078 -5.86,2.078c-2.29,0 -4.36,-0.865 -5.85,-2.079c-1.48,-1.2 -2.48,-2.813 -2.48,-4.363c0,-1.549 1,-3.162 2.48,-4.363zM4.95,6.912c-1.31,1.064 -2.03,2.372 -2.03,3.446c0,1.075 0.72,2.383 2.03,3.447c1.3,1.051 3.09,1.795 5.05,1.795c1.97,0 3.75,-0.743 5.05,-1.794c1.31,-1.064 2.04,-2.372 2.04,-3.448c0,-1.076 -0.73,-2.383 -2.04,-3.447c-1.3,-1.051 -3.08,-1.794 -5.05,-1.794c-1.96,0 -3.75,0.744 -5.05,1.795z" fill="currentColor"/>
</g></svg>