<svg viewBox="0 0 18.0001 11.1311" fill="none" xmlns="http://www.w3.org/2000/svg" x="0" y="0"><g id="Aa_3">
<path d="M0,10.9306l3.605,-10.931h1.936l3.604,10.931h-1.769l-1.769,-5.957c-0.178,-0.601 -0.356,-1.202 -0.534,-1.803c-0.167,-0.612 -0.334,-1.224 -0.5,-1.835h-0.067c-0.156,0.611 -0.323,1.223 -0.501,1.835c-0.167,0.601 -0.339,1.202 -0.517,1.803l-1.786,5.957zM2.019,7.7936v-1.318h5.074v1.318z" fill="currentColor"/>
<path d="M13.344,11.1316c-0.523,0 -0.996,-0.095 -1.418,-0.284c-0.412,-0.2 -0.74,-0.473 -0.985,-0.818c-0.234,-0.356 -0.35,-0.773 -0.35,-1.252c0,-0.912 0.445,-1.607 1.335,-2.086c0.901,-0.478 2.375,-0.795 4.422,-0.951c-0.011,-0.334 -0.089,-0.64 -0.234,-0.918c-0.133,-0.278 -0.35,-0.495 -0.65,-0.65c-0.29,-0.167 -0.674,-0.251 -1.152,-0.251c-0.334,0 -0.662,0.045 -0.985,0.134c-0.322,0.078 -0.634,0.189 -0.934,0.333c-0.301,0.145 -0.584,0.295 -0.851,0.451l-0.618,-1.118c0.301,-0.178 0.646,-0.356 1.035,-0.534c0.389,-0.189 0.807,-0.339 1.252,-0.451c0.456,-0.111 0.917,-0.167 1.385,-0.167c0.756,0 1.385,0.14 1.886,0.418c0.5,0.278 0.878,0.673 1.134,1.185c0.256,0.511 0.384,1.129 0.384,1.852v4.906h-1.352l-0.133,-1.051h-0.05c-0.434,0.334 -0.924,0.629 -1.469,0.884c-0.545,0.245 -1.096,0.368 -1.652,0.368zM13.811,9.8126c0.434,0 0.863,-0.094 1.285,-0.284c0.423,-0.189 0.84,-0.456 1.252,-0.801v-1.935c-1.068,0.077 -1.908,0.2 -2.52,0.367c-0.601,0.167 -1.023,0.378 -1.268,0.634c-0.245,0.245 -0.367,0.534 -0.367,0.868c0,0.267 0.072,0.489 0.217,0.667c0.155,0.167 0.356,0.289 0.6,0.367c0.245,0.078 0.512,0.117 0.801,0.117z" fill="currentColor"/>
</g></svg>