<svg viewBox="0 0 18 11.3666" fill="none" xmlns="http://www.w3.org/2000/svg" x="0" y="0"><g id="Aa_2">
<path d="M5.501,0.0003l3.858,9.928c0.147,0.39 0.316,0.653 0.506,0.79c0.2,0.137 0.384,0.211 0.553,0.221v0.317c-0.253,-0.021 -0.553,-0.032 -0.901,-0.032c-0.337,-0.011 -0.68,-0.016 -1.028,-0.016c-0.442,0 -0.853,0.005 -1.233,0.016c-0.379,0 -0.685,0.011 -0.917,0.032v-0.317c0.538,-0.021 0.875,-0.11 1.012,-0.268c0.148,-0.169 0.116,-0.522 -0.095,-1.059l-2.845,-7.684l0.253,-0.284l-2.625,6.861c-0.189,0.474 -0.305,0.869 -0.347,1.186c-0.032,0.316 -0.006,0.563 0.079,0.743c0.094,0.179 0.253,0.305 0.474,0.379c0.221,0.074 0.495,0.116 0.822,0.126v0.317c-0.316,-0.021 -0.638,-0.032 -0.964,-0.032c-0.317,-0.011 -0.617,-0.016 -0.902,-0.016c-0.252,0 -0.479,0.005 -0.679,0.016c-0.19,0 -0.364,0.011 -0.522,0.032v-0.317c0.221,-0.052 0.443,-0.184 0.664,-0.395c0.221,-0.211 0.432,-0.569 0.632,-1.075l3.668,-9.469c0.084,0 0.174,0 0.269,0c0.095,0 0.184,0 0.268,0zM7.161,6.7033v0.316h-4.711l0.158,-0.316z" fill="currentColor"/>
<path d="M12.72,11.3663c-0.443,0 -0.822,-0.084 -1.138,-0.253c-0.317,-0.168 -0.554,-0.4 -0.712,-0.695c-0.158,-0.295 -0.237,-0.633 -0.237,-1.012c0,-0.464 0.105,-0.838 0.316,-1.122c0.211,-0.296 0.48,-0.533 0.806,-0.712c0.338,-0.179 0.691,-0.327 1.06,-0.442c0.379,-0.127 0.732,-0.243 1.059,-0.348c0.337,-0.116 0.611,-0.248 0.822,-0.396c0.221,-0.147 0.332,-0.342 0.332,-0.584v-1.075c0,-0.38 -0.063,-0.68 -0.19,-0.902c-0.116,-0.231 -0.279,-0.395 -0.49,-0.49c-0.2,-0.094 -0.442,-0.142 -0.727,-0.142c-0.242,0 -0.501,0.037 -0.775,0.111c-0.274,0.063 -0.49,0.195 -0.648,0.395c0.232,0.063 0.422,0.19 0.569,0.379c0.158,0.18 0.237,0.406 0.237,0.68c0,0.295 -0.1,0.527 -0.3,0.696c-0.19,0.168 -0.432,0.253 -0.727,0.253c-0.327,0 -0.569,-0.1 -0.727,-0.301c-0.158,-0.21 -0.238,-0.453 -0.238,-0.727c0,-0.284 0.069,-0.516 0.206,-0.695c0.148,-0.18 0.337,-0.348 0.569,-0.506c0.253,-0.169 0.575,-0.311 0.964,-0.427c0.401,-0.116 0.844,-0.174 1.328,-0.174c0.454,0 0.844,0.053 1.17,0.158c0.338,0.095 0.617,0.253 0.838,0.474c0.264,0.243 0.438,0.548 0.522,0.917c0.084,0.359 0.126,0.796 0.126,1.312v4.364c0,0.263 0.032,0.453 0.095,0.569c0.074,0.105 0.19,0.158 0.348,0.158c0.105,0 0.205,-0.027 0.3,-0.079c0.106,-0.053 0.227,-0.132 0.364,-0.237l0.158,0.268c-0.221,0.18 -0.448,0.322 -0.68,0.427c-0.221,0.106 -0.506,0.158 -0.853,0.158c-0.338,0 -0.612,-0.052 -0.823,-0.158c-0.21,-0.105 -0.368,-0.258 -0.474,-0.458c-0.095,-0.201 -0.142,-0.448 -0.142,-0.743c-0.274,0.442 -0.601,0.78 -0.98,1.011c-0.38,0.232 -0.822,0.348 -1.328,0.348zM13.479,10.6073c0.295,0 0.569,-0.084 0.822,-0.252c0.263,-0.169 0.506,-0.422 0.727,-0.759v-3.146c-0.116,0.168 -0.285,0.316 -0.506,0.442c-0.221,0.116 -0.458,0.238 -0.711,0.364c-0.253,0.126 -0.496,0.274 -0.728,0.443c-0.221,0.158 -0.405,0.363 -0.553,0.616c-0.147,0.253 -0.221,0.575 -0.221,0.965c0,0.411 0.105,0.737 0.316,0.98c0.211,0.232 0.495,0.347 0.854,0.347z" fill="currentColor"/>
</g></svg>