<svg viewBox="0 0 18 11.4763" fill="none" xmlns="http://www.w3.org/2000/svg" x="0" y="0"><g id="Aa">
<path d="M1.808,11.2892h-1.808l4.062,-11.289h1.968l4.063,11.289h-1.808l-3.192,-9.239h-0.088zM2.111,6.8682h5.865v1.433h-5.865z" fill="currentColor"/>
<path d="M13.822,11.4762c-0.537,0 -1.022,-0.099 -1.455,-0.298c-0.434,-0.202 -0.778,-0.494 -1.031,-0.876c-0.25,-0.382 -0.375,-0.851 -0.375,-1.406c0,-0.477 0.092,-0.87 0.276,-1.179c0.183,-0.309 0.431,-0.553 0.744,-0.733c0.312,-0.18 0.661,-0.316 1.047,-0.408c0.386,-0.092 0.779,-0.162 1.18,-0.21c0.507,-0.058 0.918,-0.106 1.234,-0.143c0.316,-0.04 0.546,-0.105 0.689,-0.193c0.144,-0.088 0.215,-0.231 0.215,-0.43v-0.038c0,-0.482 -0.136,-0.855 -0.408,-1.119c-0.268,-0.265 -0.668,-0.397 -1.201,-0.397c-0.555,0 -0.992,0.123 -1.312,0.369c-0.316,0.243 -0.535,0.513 -0.656,0.81l-1.549,-0.352c0.184,-0.515 0.452,-0.93 0.805,-1.246c0.356,-0.32 0.766,-0.551 1.229,-0.695c0.463,-0.147 0.95,-0.22 1.461,-0.22c0.338,0 0.696,0.04 1.075,0.121c0.382,0.077 0.738,0.221 1.069,0.43c0.334,0.209 0.608,0.509 0.821,0.899c0.213,0.385 0.32,0.887 0.32,1.504v5.623h-1.61v-1.158h-0.066c-0.106,0.213 -0.266,0.423 -0.479,0.629c-0.213,0.205 -0.487,0.376 -0.822,0.512c-0.334,0.136 -0.735,0.204 -1.201,0.204zM14.18,10.1532c0.456,0 0.845,-0.09 1.169,-0.27c0.327,-0.18 0.575,-0.415 0.744,-0.705c0.173,-0.294 0.259,-0.609 0.259,-0.943v-1.091c-0.059,0.058 -0.173,0.114 -0.342,0.165c-0.165,0.048 -0.355,0.09 -0.568,0.127c-0.213,0.033 -0.42,0.064 -0.623,0.093c-0.202,0.026 -0.371,0.048 -0.507,0.067c-0.319,0.04 -0.611,0.108 -0.876,0.204c-0.261,0.095 -0.47,0.233 -0.628,0.413c-0.155,0.176 -0.232,0.412 -0.232,0.706c0,0.407 0.151,0.716 0.452,0.926c0.301,0.205 0.685,0.308 1.152,0.308z" fill="currentColor"/>
</g></svg>