<svg viewBox="0 0 20 20" fill="none" xmlns="http://www.w3.org/2000/svg" x="0" y="0"><g id="Home">
<path id="Vector_7" fill-rule="evenodd" clip-rule="evenodd" d="M3.7476,6.6878c0.3451,0 0.625,0.2798 0.625,0.625v7.2292c0,1.065 0.8634,1.928 1.9282,1.928h7.3994c1.0649,0 1.9283,-0.863 1.9283,-1.928v-7.2292c0,-0.3452 0.2798,-0.625 0.625,-0.625c0.3452,0 0.625,0.2798 0.625,0.625v7.2292c0,1.755 -1.4231,3.178 -3.1783,3.178h-7.3994c-1.7552,0 -3.1782,-1.423 -3.1782,-3.178v-7.2292c0,-0.3452 0.2798,-0.625 0.625,-0.625z" fill="currentColor"/>
<path id="Vector_8" fill-rule="evenodd" clip-rule="evenodd" d="M8.3841,2.8419c0.9471,-0.7488 2.2847,-0.7488 3.2319,0l6.2719,4.9648c0.2707,0.2143 0.3164,0.6073 0.1022,0.878c-0.2143,0.2706 -0.6074,0.3164 -0.878,0.1021l-6.2713,-4.9643c-0.0001,-0.0001 0.0001,0.0001 0,0c-0.4927,-0.3893 -1.1887,-0.3895 -1.6815,-0.0001c0,0 0.0001,-0.0001 0,0l-6.2714,4.9644c-0.2706,0.2143 -0.6637,0.1685 -0.8779,-0.1021c-0.2143,-0.2707 -0.1685,-0.6637 0.1021,-0.878z" fill="currentColor"/>
<path id="Vector_9" fill-rule="evenodd" clip-rule="evenodd" d="M14.7233,3.4944c0.3452,0 0.625,0.2799 0.625,0.625v1.9613c0,0.3452 -0.2798,0.625 -0.625,0.625c-0.3451,0 -0.625,-0.2798 -0.625,-0.625v-1.9613c0,-0.3451 0.2799,-0.625 0.625,-0.625z" fill="currentColor"/>
<path id="Vector_10" fill-rule="evenodd" clip-rule="evenodd" d="M9.9785,11.406h0.0458c0.314,0 0.585,0 0.8084,0.018c0.2356,0.018 0.4705,0.058 0.6982,0.168c0.382,0.185 0.6903,0.493 0.8745,0.875c0.1099,0.228 0.1504,0.462 0.1687,0.698c0.0174,0.224 0.0174,0.494 0.0174,0.808v3.122c0,0.345 -0.2798,0.625 -0.625,0.625c-0.3451,0 -0.625,-0.28 -0.625,-0.625v-3.099c0,-0.343 -0.0004,-0.565 -0.0136,-0.734c-0.0126,-0.162 -0.0341,-0.223 -0.0484,-0.252c-0.0614,-0.128 -0.1641,-0.23 -0.2915,-0.292c-0.0296,-0.014 -0.0902,-0.035 -0.2524,-0.048c-0.1691,-0.013 -0.3907,-0.014 -0.7342,-0.014c-0.3434,0 -0.5651,0.001 -0.7341,0.014c-0.1623,0.013 -0.2229,0.034 -0.2525,0.048c-0.1273,0.062 -0.23,0.164 -0.2914,0.292c-0.0143,0.029 -0.0358,0.09 -0.0485,0.252c-0.0131,0.169 -0.0135,0.391 -0.0135,0.734v3.099c0,0.345 -0.2799,0.625 -0.6251,0.625c-0.3452,0 -0.625,-0.28 -0.625,-0.625v-3.122c0,-0.314 0,-0.584 0.0174,-0.808c0.0184,-0.236 0.0589,-0.47 0.1687,-0.698c0.1842,-0.382 0.4925,-0.69 0.8745,-0.875c0.2278,-0.11 0.4625,-0.15 0.6982,-0.168c0.2235,-0.018 0.4944,-0.018 0.8084,-0.018z" fill="currentColor"/>
</g></svg>