<svg viewBox="0 0 28 28" fill="none" xmlns="http://www.w3.org/2000/svg" x="0" y="0"><defs><clipPath id="clip3_2158_9117">
<rect width="28" height="28" fill="white" transform="translate(0, 0)"/>
</clipPath></defs><g id="Feather" clip-path="url(#clip3_2158_9117)">
<path id="Vector_5" fill-rule="evenodd" clip-rule="evenodd" d="M27.3995,2.158c-1.0318,-1.9656 -4.4254,-1.3482 -7.3584,-0.5628c-12.7497,4.6984 -17.2605,14.2465 -18.8453,19.9347c-0.0784,0.1428 -0.126,0.3066 -0.1302,0.4816c-0.6272,2.4136 -0.7126,4.0222 -0.714,4.0754c-0.0238,0.5782 0.4256,1.0668 1.0038,1.0906c0.0154,0.0014 0.0308,0.0014 0.0462,0.0014c0.5586,0 1.0234,-0.441 1.0486,-1.0052c0.007,-0.1708 0.0714,-1.3454 0.4676,-3.101c3.5112,-0.1484 7.0462,-1.456 10.5181,-3.8976c0.2716,-0.1904 0.4368,-0.4984 0.4466,-0.8288c0.0098,-0.3318 -0.1386,-0.6482 -0.3976,-0.8526l-1.6016,-1.2684l5.2556,-0.5152c0.2142,-0.021 0.4158,-0.1064 0.5796,-0.2464c0.1134,-0.0952 2.7888,-2.3856 5.334,-5.0555c3.871,-4.06 5.2108,-6.6038 4.347,-8.2502z" fill="currentColor"/>
<path id="Vector_6" fill-rule="evenodd" clip-rule="evenodd" d="M21.1785,25.0798h-8.974c-0.5796,0 -1.05,0.4704 -1.05,1.05c0,0.5796 0.4704,1.05 1.05,1.05h8.974c0.5796,0 1.05,-0.4704 1.05,-1.05c0,-0.5796 -0.4704,-1.05 -1.05,-1.05z" fill="currentColor"/>
</g></svg>