<svg viewBox="0 0 24 24" fill="none" xmlns="http://www.w3.org/2000/svg" x="0" y="0"><g id="Light mode">
<path id="Vector_35" d="M5.47,19.825c-0.19,0 -0.38,-0.07 -0.53,-0.22c-0.29,-0.29 -0.29,-0.77 0,-1.06l14.12,-14.12c0.29,-0.29 0.77,-0.29 1.06,0c0.29,0.29 0.29,0.77 0,1.06l-14.12,14.12c-0.15,0.15 -0.34,0.22 -0.53,0.22z" fill="currentColor"/>
<path id="Vector_36" d="M3.611,15.325c-0.29,0 -0.57,-0.17 -0.69,-0.45c-0.16,-0.38 0,-0.82 0.39,-0.99c0.38,-0.16 0.84,-0.001 1.01,0.379c0.17,0.38 0.01,0.811 -0.37,0.981l-0.04,0.019c-0.1,0.04 -0.2,0.061 -0.3,0.061zM3.661,8.644c-0.1,0 -0.2,-0.02 -0.29,-0.06c-0.38,-0.16 -0.57,-0.61 -0.41,-0.99c0.16,-0.38 0.59,-0.56 0.97,-0.4h0.03c0.38,0.17 0.56,0.61 0.4,0.99c-0.12,0.29 -0.4,0.46 -0.69,0.46zM8.351,3.944c-0.29,0 -0.57,-0.17 -0.69,-0.45c-0.16,-0.38 0,-0.84 0.38,-1c0.38,-0.17 0.82,0 0.98,0.38v0.03c0.18,0.38 0,0.82 -0.38,0.99c-0.1,0.04 -0.2,0.06 -0.3,0.06zM14.991,3.914c-0.09,0 -0.18,-0.02 -0.27,-0.05c-0.38,-0.16 -0.57,-0.57 -0.41,-0.95l0.02,-0.06c0.16,-0.38 0.6,-0.56 0.98,-0.4c0.38,0.16 0.56,0.6 0.4,0.98c-0.12,0.29 -0.42,0.48 -0.72,0.48z" fill="currentColor"/>
<path id="Vector_37" d="M16.991,21.604c0,0 -0.03,0 -0.05,0c-2.42,-0.22 -4.42,-2.03 -4.87,-4.4c-0.08,-0.41 0.19,-0.8 0.6,-0.88c0.4,-0.07 0.8,0.19 0.88,0.6c0.23,1.19 0.99,2.19 2.03,2.74c-0.44,-1.42 -0.24,-3.02 0.63,-4.31c0.87,-1.28 2.29,-2.06 3.78,-2.16c-0.89,-0.76 -2.1,-1.11 -3.3,-0.88c-0.4,0.07 -0.8,-0.19 -0.88,-0.6c-0.08,-0.41 0.19,-0.8 0.6,-0.88c2.37,-0.45 4.79,0.74 5.88,2.9c0.14,0.27 0.09,0.63 -0.11,0.86c-0.2,0.23 -0.55,0.33 -0.84,0.23c-1.43,-0.44 -3.03,0.12 -3.89,1.38c-0.86,1.26 -0.79,2.96 0.16,4.13c0.19,0.23 0.22,0.59 0.08,0.86c-0.13,0.25 -0.42,0.41 -0.69,0.41z" fill="currentColor"/>
<path id="Vector_38" d="M7.99,13.785c-0.19,0 -0.38,-0.07 -0.53,-0.22c-1.85,-1.85 -1.85,-4.87 0,-6.72c1.85,-1.85 4.87,-1.85 6.72,0c0.29,0.29 0.29,0.77 0,1.06c-0.29,0.29 -0.77,0.29 -1.06,0c-1.27,-1.27 -3.33,-1.27 -4.6,0c-1.27,1.27 -1.27,3.33 0,4.6c0.29,0.29 0.29,0.77 0,1.06c-0.15,0.15 -0.34,0.22 -0.53,0.22z" fill="currentColor"/>
</g></svg>