<svg viewBox="0 0 24 24" fill="none" xmlns="http://www.w3.org/2000/svg" x="0" y="0"><g id="Dark mode">
<path id="Vector_33" d="M12.615,21.723c-2.53,0 -5.03,-0.97 -6.89,-2.84c-1.86,-1.87 -2.85,-4.28 -2.85,-6.88c0,-2.6 1.01,-5.04 2.85,-6.88c3.05,-3.06 7.82,-3.73 11.59,-1.63c0.26,0.15 0.44,0.48 0.41,0.78c-0.03,0.33 -0.25,0.6 -0.57,0.7c-3.05,0.94 -5.19,3.83 -5.19,7.03c0,3.21 2.14,6.1 5.19,7.02c0.29,0.09 0.53,0.38 0.57,0.68c0.04,0.3 -0.14,0.65 -0.4,0.8c-1.47,0.82 -3.1,1.22 -4.71,1.22zM12.615,3.783c-2.14,0 -4.25,0.83 -5.83,2.4c-1.58,1.57 -2.41,3.62 -2.41,5.82c0,2.2 0.85,4.27 2.41,5.82c2.21,2.21 5.49,2.94 8.39,1.99c-2.83,-1.51 -4.7,-4.52 -4.7,-7.81c0,-3.29 1.87,-6.3 4.69,-7.82c-0.83,-0.27 -1.7,-0.4 -2.55,-0.4zM16.585,4.803c0,0 0.01,0 0.02,0.01c0,0 -0.01,0 -0.02,-0.01z" fill="currentColor"/>
<path id="Vector_34" d="M18.974,19.052c-0.19,0 -0.38,-0.069 -0.53,-0.219c-0.29,-0.29 -0.29,-0.771 0,-1.061c1.55,-1.55 2.41,-3.619 2.41,-5.81c0,-2.19 -0.85,-4.26 -2.41,-5.81c-0.29,-0.29 -0.29,-0.77 0,-1.059c0.29,-0.29 0.77,-0.29 1.06,0c1.84,1.84 2.85,4.279 2.85,6.869c0,2.59 -1.01,5.041 -2.85,6.871c-0.15,0.15 -0.34,0.219 -0.53,0.219z" fill="currentColor"/>
</g></svg>