<svg viewBox="0 0 20 20" fill="none" xmlns="http://www.w3.org/2000/svg" x="0" y="0"><g id="Search">
<path id="Vector_36" fill-rule="evenodd" clip-rule="evenodd" d="M9.37,2.9169c-3.35,0 -6.07,2.7193 -6.07,6.0738c0,3.3544 2.72,6.0737 6.07,6.0737c3.36,0 6.08,-2.7193 6.08,-6.0737c0,-3.3545 -2.72,-6.0738 -6.08,-6.0738zM2.05,8.9907c0,-4.0449 3.28,-7.3238 7.32,-7.3238c4.05,0 7.33,3.2789 7.33,7.3238c0,4.0448 -3.28,7.3237 -7.33,7.3237c-4.04,0 -7.32,-3.2789 -7.32,-7.3237z" fill="currentColor"/>
<path id="Vector_37" fill-rule="evenodd" clip-rule="evenodd" d="M13.95,13.0397l4.68,4.6675l-0.89,0.885l-4.68,-4.6675z" fill="currentColor"/>
</g></svg>