<svg viewBox="0 0 18.1517 19.5" fill="none" xmlns="http://www.w3.org/2000/svg" x="0" y="0"><path id="Vector_38" fill-rule="evenodd" clip-rule="evenodd" d="M5.96,2.5286c0,-1.3957 1.13,-2.5286 2.53,-2.5286h1.17c0.02,0 0.04,0.0005 0.05,0.0007v0c0.01,0.0002 0.01,0.0003 0.01,0.0003c0.01,0 0.02,0.0001 0.02,0.0004c1.4,0.0453 2.5,1.2082 2.46,2.6019c0.01,0.1638 0.05,0.3241 0.14,0.467v0.0045v0.0028c0,0.0017 0,0.0034 0,0.0052c0.29,0.4886 0.92,0.65 1.41,0.3605l0.01,-0.0056c1.21,-0.6967 2.76,-0.2816 3.47,0.9308v0.001l0.58,1.0109c0.01,0.0248 0.03,0.0504 0.04,0.0765c0.64,1.2008 0.21,2.6984 -0.97,3.3865l-0.01,0.003c-0.15,0.0891 -0.28,0.2192 -0.37,0.3757l-0.01,0.0147v0.0021c-0.28,0.4896 -0.11,1.1121 0.37,1.3965c0,0.0005 0.01,0.001 0.01,0.0014c0,0.0024 0.01,0.005 0.01,0.0079c0.01,0.0057 0.02,0.0134 0.04,0.023c1.19,0.7098 1.59,2.2467 0.89,3.4457l-0.01,0.0074l-0.61,1.0249c-0.7,1.2068 -2.25,1.6223 -3.46,0.926c-0.16,-0.0867 -0.33,-0.1347 -0.5,-0.1406h-0.01c-0.57,0.0052 -1.02,0.4685 -1.02,1.0351v0.0104c-0.01,1.397 -1.14,2.5234 -2.54,2.5234h-1.17c-1.4,0 -2.54,-1.1349 -2.54,-2.5358c0,-0.1644 -0.05,-0.3262 -0.13,-0.4694c0,-0.0096 -0.01,-0.0193 -0.02,-0.0291c-0.28,-0.4889 -0.91,-0.6546 -1.4,-0.37c0,0.0001 0,-0.0001 0,0v0.0021c0,0.0032 -0.01,0.0073 -0.02,0.0118c0,0.0015 -0.01,0.0031 -0.01,0.0047c-1.22,0.672 -2.76,0.2276 -3.44,-0.9933l-0.58,-0.996c0,-0.0027 0,-0.0055 0,-0.0084c-0.01,-0.0064 -0.01,-0.0136 -0.02,-0.0215c-0.69,-1.2107 -0.27,-2.753 0.94,-3.4471c0.32,-0.1864 0.52,-0.5302 0.52,-0.9009c0,-0.3723 -0.2,-0.7162 -0.52,-0.9023v-0.0006c-1.21,-0.7012 -1.63,-2.2512 -0.93,-3.4654l0.01,-0.0153l0.62,-1.0231c0.7,-1.2065 2.25,-1.6183 3.46,-0.9231l0.01,0.005c0.15,0.0866 0.31,0.1328 0.48,0.1349c0.57,0.0003 1.03,-0.4546 1.04,-1.0218zM12.34,3.0863c0.01,0.0011 0.01,0.0019 0.01,0.0013zM8.49,1.5c-0.57,0 -1.03,0.4608 -1.03,1.0286v0.0231c-0.02,1.3913 -1.16,2.5096 -2.55,2.5055v0c-0.44,-0.0042 -0.86,-0.1223 -1.23,-0.3408c-0.5,-0.2832 -1.13,-0.1122 -1.42,0.3828v0.0139l-0.62,1.0208c-0.28,0.4954 -0.11,1.1262 0.38,1.4123l-0.38,0.649l0.38,-0.6496c0.79,0.4541 1.27,1.2933 1.27,2.2015c0,0.9074 -0.48,1.7465 -1.27,2.2005v0.0011c-0.49,0.2797 -0.66,0.8986 -0.39,1.3894c0,0.0007 0,0.0015 0,0.0023c0,0.0056 0.01,0.0118 0.01,0.0186l0.59,1.0157l0.01,0.0141c0.27,0.5004 0.9,0.6845 1.4,0.4138c0.01,-0.0023 0.01,-0.0049 0.02,-0.0078c1.19,-0.6912 2.72,-0.2904 3.43,0.897c0,0.0011 0,0.0021 0,0.0031c0.01,0.0101 0.01,0.0195 0.01,0.0215l0.01,0.0042c0.22,0.373 0.34,0.7979 0.34,1.2319v0.0072c0,0.5741 0.47,1.0403 1.04,1.0403h1.17c0.57,0 1.04,-0.4593 1.04,-1.0297c0,-1.3932 1.12,-2.5295 2.51,-2.5391l0.01,-0.0001h0.02l0.02,0.0003c0.43,0.011 0.84,0.1279 1.21,0.3372v0.0019c0.5,0.2856 1.14,0.1155 1.42,-0.3814l0.01,-0.01l0.61,-1.0251c0.29,-0.4903 0.12,-1.1177 -0.37,-1.4034c0,-0.002 -0.01,-0.0041 -0.01,-0.0062c-1.21,-0.6898 -1.63,-2.2271 -0.95,-3.439c0.01,-0.0173 0.02,-0.0302 0.02,-0.0365c0.22,-0.384 0.54,-0.7032 0.93,-0.9231c0.49,-0.2881 0.66,-0.9181 0.38,-1.4125c-0.01,-0.0197 -0.02,-0.0399 -0.03,-0.0604l-0.55,-0.9532c0,-0.0002 0,0.0001 0,0c-0.29,-0.4948 -0.92,-0.666 -1.42,-0.383c-1.2,0.7073 -2.75,0.3109 -3.46,-0.887v-0.0051v-0.0027c0,-0.0017 0,-0.0034 0,-0.0051c-0.22,-0.3726 -0.34,-0.7965 -0.35,-1.2309c0,-0.0103 0,-0.0206 0,-0.0309c0.02,-0.5722 -0.43,-1.0512 -1,-1.0741c-0.01,-0.0002 -0.02,-0.0005 -0.03,-0.0006v0c-0.01,-0.0003 -0.01,-0.0003 -0.01,-0.0003zM3.62,14.8151c0,0.0005 0,-0.0003 0.01,-0.0013zM9.08,8.0305c-0.95,0 -1.72,0.7685 -1.72,1.7175c0,0.9489 0.77,1.7174 1.72,1.7174c0.95,0 1.72,-0.7685 1.72,-1.7174c0,-0.949 -0.77,-1.7175 -1.72,-1.7175zM5.86,9.748c0,-1.7774 1.44,-3.2175 3.22,-3.2175c1.78,0 3.22,1.4401 3.22,3.2175c0,1.7773 -1.44,3.2174 -3.22,3.2174c-1.78,0 -3.22,-1.4401 -3.22,-3.2174z" fill="currentColor"/></svg>