<svg viewBox="0 0 20 20" fill="none" xmlns="http://www.w3.org/2000/svg" x="0" y="0"><g id="Tag_2">
<path id="Vector_16" fill-rule="evenodd" clip-rule="evenodd" d="M2.5132,4.972c0.0024,-1.176 0.8919,-2.231 2.0465,-2.43c0.2367,-0.041 3.0137,-0.036 4.1626,-0.035c1.1368,0.001 2.1057,0.41 2.9084,1.211c1.7043,1.701 3.407,3.404 5.1072,5.108c1.0062,1.008 1.02,2.555 0.0179,3.566c-1.4457,1.459 -2.8987,2.911 -4.3573,4.357c-1.0102,1.001 -2.5572,0.988 -3.5659,-0.018c-1.7197,-1.715 -3.4394,-3.43 -5.1519,-5.152c-0.6624,-0.666 -1.0532,-1.471 -1.1399,-2.413c-0.0698,-0.752 -0.0292,-3.549 -0.0276,-4.194z" stroke="#2B303B" stroke-width="1.5" stroke-linecap="round" stroke-linejoin="round"/>
<path id="Vector_17" fill-rule="evenodd" clip-rule="evenodd" d="M8.2559,6.929c-0.0032,0.725 -0.6089,1.321 -1.341,1.32c-0.7273,-0.002 -1.333,-0.609 -1.3289,-1.331c0.0048,-0.754 0.6016,-1.342 1.3605,-1.339c0.72,0.003 1.3127,0.613 1.3094,1.35z" stroke="#2B303B" stroke-width="1.5" stroke-linecap="round" stroke-linejoin="round"/>
</g></svg>