<svg viewBox="0 0 20 20" fill="none" xmlns="http://www.w3.org/2000/svg" x="0" y="0"><g id="Type">
<path id="Vector_33" fill-rule="evenodd" clip-rule="evenodd" d="M17.499,9.149h-5.306c-0.46,0 -0.834,0.372 -0.834,0.833v0.942c0,0.461 0.374,0.833 0.834,0.833c0.46,0 0.833,-0.372 0.833,-0.833v-0.109h0.962v3.675h-0.325c-0.46,0 -0.834,0.372 -0.834,0.833c0,0.461 0.374,0.833 0.834,0.833h2.367c0.46,0 0.834,-0.372 0.834,-0.833c0,-0.461 -0.374,-0.833 -0.834,-0.833h-0.376v-3.675h1.012v0.109c0,0.461 0.373,0.833 0.833,0.833c0.46,0 0.834,-0.372 0.834,-0.833v-0.942c0,-0.461 -0.374,-0.833 -0.834,-0.833z" fill="currentColor"/>
<path id="Vector_34" fill-rule="evenodd" clip-rule="evenodd" d="M10.154,14.49h-1.579v-8.982h3.679v1.042c0,0.46 0.374,0.833 0.834,0.833c0.46,0 0.833,-0.373 0.833,-0.833v-1.875c0,-0.461 -0.373,-0.834 -0.833,-0.834h-10.589c-0.46,0 -0.833,0.373 -0.833,0.834v1.875c0,0.46 0.373,0.833 0.833,0.833c0.46,0 0.834,-0.373 0.834,-0.833v-1.042h3.576v8.982h-1.478c-0.46,0 -0.833,0.373 -0.833,0.834c0,0.461 0.373,0.833 0.833,0.833h4.723c0.46,0 0.834,-0.372 0.834,-0.833c0,-0.461 -0.374,-0.834 -0.834,-0.834z" fill="currentColor"/>
</g></svg>