<svg viewBox="0 0 20 20" fill="none" xmlns="http://www.w3.org/2000/svg" x="0" y="0"><g id="Show">
<path id="Vector_3" fill-rule="evenodd" clip-rule="evenodd" d="M10.002,8.429c-1.11,0 -2.01,0.863 -2.01,1.929c0,1.066 0.901,1.93 2.01,1.93c1.11,0 2.01,-0.864 2.01,-1.93c0,-1.066 -0.9,-1.929 -2.01,-1.929zM6.742,10.358c0,-1.729 1.46,-3.129 3.26,-3.129c1.8,0 3.26,1.4 3.26,3.129c0,1.729 -1.459,3.13 -3.26,3.13c-1.8,0 -3.26,-1.401 -3.26,-3.13z" fill="currentColor"/>
<path id="Vector_4" fill-rule="evenodd" clip-rule="evenodd" d="M4.146,5.995c1.496,-1.213 3.563,-2.078 5.856,-2.078c2.292,0 4.359,0.864 5.855,2.078c1.479,1.2 2.48,2.813 2.48,4.363c0,1.551 -1.001,3.164 -2.48,4.364c-1.496,1.214 -3.563,2.078 -5.855,2.078c-2.293,0 -4.36,-0.865 -5.856,-2.079c-1.479,-1.2 -2.479,-2.813 -2.479,-4.363c0,-1.549 1,-3.162 2.479,-4.363zM4.953,6.912c-1.311,1.064 -2.036,2.372 -2.036,3.446c0,1.075 0.725,2.383 2.036,3.447c1.295,1.051 3.083,1.795 5.049,1.795c1.965,0 3.753,-0.743 5.048,-1.794c1.311,-1.064 2.037,-2.372 2.037,-3.448c0,-1.076 -0.726,-2.383 -2.037,-3.447c-1.295,-1.051 -3.083,-1.794 -5.048,-1.794c-1.966,0 -3.754,0.744 -5.049,1.795z" fill="currentColor"/>
</g></svg>