<svg viewBox="0 0 28 28" fill="none" xmlns="http://www.w3.org/2000/svg" x="0" y="0"><defs><clipPath id="clip1_2195_32129">
<rect width="28" height="28" fill="white" transform="translate(0, 0)"/>
</clipPath></defs><g id="Feather" clip-path="url(#clip1_2195_32129)">
<path id="Vector" fill-rule="evenodd" clip-rule="evenodd" d="M27.399,2.158c-1.031,-1.966 -4.425,-1.348 -7.358,-0.563c-12.75,4.699 -17.261,14.247 -18.845,19.935c-0.079,0.143 -0.126,0.306 -0.131,0.481c-0.627,2.414 -0.712,4.023 -0.714,4.076c-0.023,0.578 0.426,1.067 1.004,1.09c0.016,0.002 0.031,0.002 0.046,0.002c0.559,0 1.024,-0.441 1.049,-1.005c0.007,-0.171 0.071,-1.346 0.468,-3.101c3.511,-0.149 7.046,-1.456 10.518,-3.898c0.271,-0.19 0.437,-0.498 0.446,-0.829c0.01,-0.332 -0.138,-0.648 -0.397,-0.852l-1.602,-1.269l5.256,-0.515c0.214,-0.021 0.416,-0.106 0.579,-0.246c0.114,-0.096 2.789,-2.386 5.334,-5.056c3.871,-4.06 5.211,-6.604 4.347,-8.25z" fill="currentColor"/>
<path id="Vector_2" fill-rule="evenodd" clip-rule="evenodd" d="M21.179,25.08h-8.974c-0.58,0 -1.05,0.47 -1.05,1.05c0,0.579 0.47,1.05 1.05,1.05h8.974c0.579,0 1.05,-0.471 1.05,-1.05c0,-0.58 -0.471,-1.05 -1.05,-1.05z" fill="currentColor"/>
</g></svg>