<svg viewBox="0 0 17.9999 17.9993" fill="none" xmlns="http://www.w3.org/2000/svg" x="0" y="0"><path id="Vector_5" fill-rule="evenodd" clip-rule="evenodd" d="M17.838,10.7092c0.108,-0.55 0.162,-1.13 0.162,-1.71c0,-0.392 -0.026,-0.774 -0.076,-1.147c-0.037,-0.274 -0.281,-0.473 -0.557,-0.473h-7.805c-0.31,0 -0.562,0.252 -0.562,0.562v2.206c0,0.31 0.252,0.562 0.562,0.562h4.275c0.176,0 0.305,0.18 0.239,0.343c-0.935,2.31 -3.39,3.826 -6.132,3.319c-2.106,-0.389 -3.832,-2.059 -4.284,-4.152c-0.767,-3.552 1.917,-6.69 5.34,-6.69c1.122,0 2.162,0.337 3.029,0.914c0.232,0.154 0.535,0.139 0.731,-0.06l1.702,-1.733c0.232,-0.237 0.218,-0.631 -0.046,-0.832c-1.441,-1.096 -3.223,-1.762 -5.161,-1.815c-4.872,-0.135 -9.091,3.823 -9.25,8.694c-0.167,5.108 3.927,9.302 8.995,9.302c4.383,0 8.037,-3.14 8.838,-7.29z" fill="currentColor"/></svg>